<svg xmlns="http://www.w3.org/2000/svg" width="170" height="32.9" viewBox="0 0 170 32.9">
  <title>logo-sales</title>
  <g id="Layer_2" data-name="Layer 2">
    <g id="Layer_1-2" data-name="Layer 1">
      <g>
        <g>
          <g>
            <path d="M41.2,16.9A10.5,10.5,0,1,1,51.7,27.4,10.5,10.5,0,0,1,41.2,16.9Zm16.4-.1a5.8,5.8,0,0,0-5.9-6,5.9,5.9,0,0,0-5.9,6.1,5.9,5.9,0,1,0,11.8-.1Z" fill="#221f1f"/>
            <path d="M79.7,19.7c0,4.3-3.1,7.6-6.9,7.6a5.5,5.5,0,0,1-4.3-1.7v7.1H64.2v-20l4.3-1.3v2.4a5.4,5.4,0,0,1,4.3-1.7C76.6,12,79.7,15.4,79.7,19.7Zm-4.3,0a3.3,3.3,0,0,0-3.5-3.5,3.2,3.2,0,0,0-3.4,3.5,3.5,3.5,0,1,0,6.9,0Z" fill="#221f1f"/>
            <path d="M87.4,16.6v5.1c0,1.2,1.1,1.4,3,1.2v4c-5.7.6-7.3-1.1-7.3-5.2V16.6H80.7V12.4H83V8.6l4.4-1.3v5.1h2.9v4.2Z" fill="#221f1f"/>
            <rect x="92.8" y="12.4" width="4.3" height="14.45" transform="translate(-0.1 0.3) rotate(-0.2)" fill="#221f1f"/>
            <path d="M120.7,26.8H116V15l-5.2,8.6h-.5L105,15.1V26.8h-4.6V6.6H105l5.5,9,5.5-9h4.6Z" fill="#221f1f"/>
            <path d="M122.6,19.6a7.7,7.7,0,1,1,7.7,7.6A7.6,7.6,0,0,1,122.6,19.6Zm11-.1a3.4,3.4,0,1,0-6.7,0,3.4,3.4,0,1,0,6.7,0Z" fill="#221f1f"/>
            <path d="M153.6,17.8v8.9h-4.4V18.5a2.4,2.4,0,0,0-2.5-2.7,2.7,2.7,0,0,0-2.7,3v7.9h-4.3V12.5l4.3-1.3v2.4a5.1,5.1,0,0,1,4.1-1.7C151.1,11.8,153.6,13.9,153.6,17.8Z" fill="#221f1f"/>
            <path d="M165.1,26.7l-4.7-6.4v6.4h-4.4V6.7l4.3-1.3V18.6l4.4-6.4h5l-5.2,7.2,5.4,7.2Z" fill="#221f1f"/>
          </g>
          <path d="M92.4,7.5a2.6,2.6,0,1,1,5.2-.1A2.6,2.6,0,0,1,95,10,2.5,2.5,0,0,1,92.4,7.5Z" fill="#ed4525"/>
        </g>
        <g>
          <path d="M28.5,10v.5l-.5,13a5.3,5.3,0,0,1-4.4,5.1l1.9,3.3a7.1,7.1,0,0,0,6.1-6.7l.6-17V7.7Z" fill="#221f1f"/>
          <path d="M23.1,28.7l-12,.7a5.3,5.3,0,0,1-5.6-4.9L4.4,10.1A5.2,5.2,0,0,1,9.9,4.3l13.6.6a5.4,5.4,0,0,1,5,5.1l3.7-2.3A6.9,6.9,0,0,0,25.5.9L7.4,0H6.8A7.1,7.1,0,0,0,0,7.6L1.5,26.4a7,7,0,0,0,7.4,6.5l16.1-1h.5l-1.9-3.3Z" fill="#ec5a2a"/>
          <g>
            <circle cx="13.4" cy="10.7" r="1.9" fill="#ec5a2a"/>
            <circle cx="20" cy="10.7" r="1.9" fill="#ec5a2a"/>
            <circle cx="13.4" cy="16.6" r="1.9" fill="#ec5a2a"/>
            <circle cx="20" cy="16.6" r="1.9" fill="#ec5a2a"/>
            <circle cx="13.4" cy="22.5" r="1.9" fill="#ec5a2a"/>
            <circle cx="20" cy="22.5" r="1.9" fill="#ec5a2a"/>
          </g>
        </g>
      </g>
    </g>
  </g>
</svg>
