<svg xmlns="http://www.w3.org/2000/svg" width="220" height="47" viewBox="0 0 220 47">
  <g fill="none" transform="translate(1 1)">
    <path fill="#FFF" d="M97.6413568,15.8774955 C97.8849118,15.8774955 98.087476,16.053696 98.1294834,16.2860555 L98.1374765,16.3755884 L98.1374765,28.927528 C98.1374765,31.7168479 97.6413568,33.5099821 96.2522216,34.904642 C94.8630864,36.299302 92.7793836,36.996632 89.7034414,36.996632 C87.2721432,37.0468172 84.8618572,36.5355766 82.6585414,35.5023535 C82.4842427,35.3915848 82.3989442,35.1864473 82.4364181,34.988661 L82.4600935,34.904642 L83.7500048,32.3145593 C83.876096,32.1145685 84.1249563,32.0312852 84.3453484,32.1153221 C85.8096599,32.9040759 87.4463503,33.3148758 89.1080977,33.310745 C91.6073008,33.310745 92.8959524,32.095379 92.9740525,29.8457833 L92.9778315,29.6248579 L92.9778315,29.0271465 C91.8749873,30.4259509 90.1903788,31.2348376 88.4135301,31.218755 C84.8203567,31.218755 81.9875558,28.737716 81.8686376,24.6161864 L81.8647498,24.3450738 L81.8687676,24.0738278 C81.9889281,20.0379244 84.7875417,17.4845263 88.000309,17.3754163 L88.2150822,17.371774 L93.1762794,17.371774 L93.9700709,18.1687226 L97.343685,15.8774955 L97.6413568,15.8774955 Z M56.5934934,15.6619867 C58.4631493,17.4668826 59.5514165,19.9316887 59.6335762,22.5258852 L59.6385897,22.8507953 L59.6297835,23.1880749 C59.519308,25.7682854 58.4239132,28.2122883 56.5634875,30.0082737 C54.6221738,31.8823454 52.0112576,32.8930859 49.3192965,32.8126521 C46.619643,32.9211554 43.9926577,31.9197037 42.0450995,30.0396039 C40.1754436,28.234708 39.0871764,25.7699019 39.0050167,23.1757054 L39.0000032,22.8507953 L39.0088094,22.5135157 C39.1192849,19.9333052 40.2146797,17.4893023 42.0751054,15.6933169 C44.0164191,13.8192452 46.6273353,12.8085047 49.3192965,12.8889385 C52.0189499,12.7804352 54.6459352,13.7818868 56.5934934,15.6619867 Z M189.919624,19.463764 C191.191962,20.8805476 191.867722,22.737351 191.804879,24.6439295 C191.819291,24.9426101 191.819291,25.2418161 191.804879,25.5404966 L179.99723,25.5404966 C180.096454,28.7282908 182.180156,30.8202807 185.156875,30.8202807 C186.874774,30.89957 188.529403,30.1612545 189.621952,28.8279094 L191.011087,30.2225693 C189.539215,31.9153598 187.394429,32.8642788 185.156875,32.8126521 C183.191893,32.8714438 181.289613,32.1147126 179.898006,30.7206622 C178.540222,29.2700734 177.824467,27.3298475 177.913527,25.3412595 L177.913527,25.0424038 C177.842199,22.978759 178.591947,20.9714777 179.99723,19.463764 C181.351574,18.0750018 183.221764,17.3167291 185.156875,17.371774 C186.977086,17.3142418 188.726354,18.0825904 189.919624,19.463764 Z M138.124726,17.371774 C140.19124,17.2009815 142.180555,18.1995951 143.284371,19.9618568 L143.284371,19.9618568 L143.284371,17.7702483 L145.368074,17.7702483 L145.368074,29.3260022 C145.368074,30.4218065 145.566521,30.8202807 146.360313,30.8202807 L146.360313,30.8202807 L146.856433,30.8202807 L146.856433,32.613415 L145.963417,32.613415 C145.28879,32.6682358 144.621146,32.4439168 144.115275,31.9924647 C143.609403,31.5410127 143.309238,30.9016359 143.284371,30.2225693 C142.113669,31.8979898 140.159189,32.8413808 138.124726,32.7130335 C136.174646,32.7421733 134.30221,31.9468385 132.965081,30.521425 C131.575052,29.0442922 130.825644,27.0737504 130.881378,25.0424038 C130.814545,23.0091762 131.565529,21.0344914 132.965081,19.5633825 C134.30221,18.1379691 136.174646,17.3426343 138.124726,17.371774 Z M175.72121,19.357714 L175.882,19.517 L174.639137,20.9580425 C173.542755,19.8396583 172.034268,19.226652 170.471731,19.2645268 C168.97088,19.2459905 167.531098,19.8603315 166.502773,20.9580425 C165.430432,22.0383173 164.855107,23.5184498 164.91519,25.0424038 C164.867,26.5643303 165.440549,28.0398944 166.502773,29.1267651 C167.554837,30.1778086 168.987906,30.7533162 170.471731,30.7206622 C172.034268,30.7585371 173.542755,30.1455307 174.639137,29.0271465 L175.929048,30.521425 C174.50018,31.9934356 172.517587,32.789627 170.471731,32.7130335 C168.430159,32.7652418 166.456931,31.9728115 165.014414,30.521425 C163.593245,29.164938 162.774539,27.2972573 162.732692,25.3370729 L162.732264,25.0424038 C162.694175,22.9755963 163.522186,20.987694 165.014414,19.5633825 C166.463401,18.1218656 168.432254,17.3311923 170.471731,17.371774 C172.420165,17.2988279 174.311218,18.0175233 175.72121,19.357714 Z M161.135291,19.357714 L161.296,19.517 L160.053217,20.9580425 C158.956836,19.8396583 157.448349,19.226652 155.885812,19.2645268 C154.384961,19.2459905 152.945179,19.8603315 151.916854,20.9580425 C150.844512,22.0383173 150.269188,23.5184498 150.329271,25.0424038 C150.281081,26.5643303 150.85463,28.0398944 151.916854,29.1267651 C152.968917,30.1778086 154.401987,30.7533162 155.885812,30.7206622 C157.448349,30.7585371 158.956836,30.1455307 160.053217,29.0271465 L161.343128,30.521425 C159.914261,31.9934356 157.931667,32.789627 155.885812,32.7130335 C153.844239,32.7652418 151.871011,31.9728115 150.428495,30.521425 C148.94642,29.0901107 148.120351,27.1068724 148.146344,25.0424038 C148.108255,22.9755963 148.936266,20.987694 150.428495,19.5633825 C151.877481,18.1218656 153.846334,17.3311923 155.885812,17.371774 C157.834245,17.2988279 159.725299,18.0175233 161.135291,19.357714 Z M78.9872555,17.6706297 L78.8880315,17.7702483 C79.1315865,17.7702483 79.3341507,17.9464488 79.3761581,18.1788083 L79.3841513,18.2683412 L79.3841513,32.2149407 C79.3881375,32.3403909 79.3330178,32.4603944 79.2353961,32.5388024 C79.1572988,32.6015288 79.0593034,32.6317681 78.9612615,32.6252563 L78.8880315,32.613415 L74.621402,32.613415 C74.377847,32.613415 74.1752828,32.4372145 74.1332754,32.204855 L74.1252823,32.1153221 L74.1252823,18.1687226 C74.1252823,17.924199 74.3007848,17.7208292 74.5322238,17.6786547 L74.621402,17.6706297 L78.9872555,17.6706297 Z M217.50388,19.7626197 L215.618625,21.1572796 C215.058139,19.9103094 213.805497,19.1242944 212.443459,19.1649083 C211.054324,19.1649083 209.466741,19.7626197 209.466741,21.3565168 C209.466741,22.9504139 210.45898,23.2492696 212.344235,23.6477438 L214.427938,24.1458367 C216.421134,24.4332252 217.924562,26.1103447 218,28.1305794 C218,31.3183736 215.122506,32.613415 212.344235,32.613415 C210.115235,32.6970146 208.005974,31.6003748 206.787694,29.7244765 L208.573725,28.5290537 C209.384364,29.8977851 210.857389,30.7320271 212.443459,30.7206622 C214.130266,30.7206622 215.817073,29.9237136 215.817073,28.3298165 C215.817073,26.7359195 214.527162,26.3374452 213.038803,25.9389709 L211.054324,25.4408781 C210.062085,25.1420224 207.283814,24.3450738 207.283814,21.5557539 C207.283814,18.766434 209.962861,17.1725369 212.641907,17.1725369 C214.629418,16.9981778 216.533471,18.0125099 217.50388,19.7626197 Z M204.40632,19.7626197 L202.421841,21.1572796 C201.861355,19.9103094 200.608713,19.1242944 199.246675,19.1649083 C197.85754,19.1649083 196.269956,19.7626197 196.269956,21.3565168 C196.269956,22.9504139 197.262196,23.2492696 199.147451,23.6477438 L201.231154,24.1458367 C203.224349,24.4332252 204.727777,26.1103447 204.803216,28.1305794 C204.803216,31.3183736 201.925721,32.613415 199.147451,32.613415 C196.918451,32.6970146 194.80919,31.6003748 193.59091,29.7244765 L195.376941,28.5290537 C196.187579,29.8977851 197.660604,30.7320271 199.246675,30.7206622 C200.933482,30.7206622 202.719513,29.9237136 202.719513,28.3298165 C202.719513,26.7359195 201.429601,26.3374452 199.941242,25.9389709 L197.956763,25.4408781 C196.964524,25.1420224 194.186254,24.3450738 194.186254,21.5557539 C194.186254,18.766434 196.8653,17.1725369 199.544347,17.1725369 C201.531857,16.9981778 203.435911,18.0125099 204.40632,19.7626197 Z M118.478385,17.2721555 C121.574172,17.2721555 123.443737,19.2608534 123.53528,22.49959 L123.538806,22.7511767 L123.538806,32.0157036 C123.538806,32.2602272 123.363304,32.463597 123.131864,32.5057715 L123.042686,32.5137964 L118.776057,32.5137964 C118.532502,32.5137964 118.329938,32.3375959 118.28793,32.1052364 L118.279937,32.0157036 L118.279937,24.4446924 C118.279937,22.8507953 117.386922,21.9542282 116.196234,21.9542282 C115.561818,21.9482743 114.956209,22.2197232 114.537077,22.6979032 C114.159859,23.1282653 113.96728,23.6877539 113.995627,24.2553569 L114.013307,24.4446924 L114.013307,32.1153221 C114.017294,32.2407723 113.962174,32.3607759 113.864552,32.4391839 C113.786455,32.5019102 113.68846,32.5321495 113.590418,32.5256377 L113.517188,32.5137964 L109.250558,32.5137964 C109.007003,32.5137964 108.804439,32.3375959 108.762432,32.1052364 L108.754438,32.0157036 L108.754438,18.069104 C108.754438,17.8245804 108.929941,17.6212106 109.16138,17.5790361 L109.250558,17.5710112 L113.517188,17.5710112 C113.760743,17.5710112 113.963307,17.7472117 114.005314,17.9795712 L114.013307,18.069104 L114.013307,19.6630011 C115.021452,18.1795444 116.689698,17.286275 118.478385,17.2721555 Z M105.678496,17.5710112 L105.678496,17.6706297 C105.922051,17.6706297 106.124615,17.8468303 106.166623,18.0791898 L106.174616,18.1687226 L106.174616,32.1153221 C106.178602,32.2407723 106.123483,32.3607759 106.025861,32.4391839 C105.947763,32.5019102 105.849768,32.5321495 105.751726,32.5256377 L105.678496,32.5137964 L101.411867,32.5137964 C101.168312,32.5137964 100.965748,32.3375959 100.92374,32.1052364 L100.915747,32.0157036 L100.915747,18.069104 C100.915747,17.8245804 101.091249,17.6212106 101.322689,17.5790361 L101.411867,17.5710112 L105.678496,17.5710112 Z M71.3470119,17.371774 C71.5905668,17.371774 71.793131,17.5479745 71.8351384,17.7803341 L71.8431316,17.8698669 L71.8431316,22.3527025 C71.8431316,22.6277915 71.6210112,22.8507953 71.3470119,22.8507953 C68.7423833,22.8507953 67.2632116,24.3573724 67.1830451,27.5536176 L67.1796062,27.8317237 L67.1796062,32.0157036 C67.1796062,32.2602272 67.0041037,32.463597 66.7726647,32.5057715 L66.6834865,32.5137964 L62.416857,32.5137964 C62.173302,32.5137964 61.9707378,32.3375959 61.9287304,32.1052364 L61.9207372,32.0157036 L61.9207372,18.069104 C61.9207372,17.8245804 62.0962398,17.6212106 62.3276788,17.5790361 L62.416857,17.5710112 L66.6834865,17.5710112 C66.9270415,17.5710112 67.1296057,17.7472117 67.1716131,17.9795712 L67.1796062,18.069104 L67.1796062,20.6591868 C67.9733978,18.6668154 69.1640851,17.4713926 71.3470119,17.371774 Z M138.025502,19.2645268 C136.580421,19.2383142 135.198636,19.8589399 134.254992,20.9580425 C133.247961,22.0729175 132.713972,23.5382948 132.766633,25.0424038 C132.72433,26.5448397 133.25695,28.006457 134.254992,29.1267651 C135.224975,30.1778186 136.59882,30.7585802 138.025502,30.7206622 C139.483997,30.7744781 140.894616,30.1934609 141.895236,29.1267651 C142.947728,28.0336027 143.519605,26.5623412 143.482819,25.0424038 C143.531009,23.5204773 142.95746,22.0449132 141.895236,20.9580425 C140.91263,19.8545392 139.499545,19.2361292 138.025502,19.2645268 Z M49.3192965,17.6706211 C47.9765495,17.6681006 46.6925435,18.2231984 45.7716845,19.2043231 C44.9083792,20.1241275 44.4363148,21.3415844 44.4484192,22.5988811 L44.4573232,22.8507953 L44.4537565,23.1178609 C44.4703423,24.3611947 44.9500343,25.5572267 45.8038086,26.4668763 C46.7185667,27.4415009 47.9856888,28.0052593 49.3192965,28.0309625 C50.6439033,28.0320691 51.9116174,27.490531 52.82934,26.5315515 C53.6897048,25.6325083 54.172624,24.4395486 54.1850791,23.1990701 L54.1812697,22.9504139 L54.2804936,22.8507953 C54.3345304,21.4956001 53.8357881,20.1768836 52.899462,19.1992317 C51.963136,18.2215797 50.6702039,17.6695443 49.3192965,17.6706211 Z M87.8368764,22.1288671 C87.3021323,22.631101 86.9800683,23.3171944 86.9315632,24.0457975 L86.9251628,24.2454552 L86.9303002,24.4239823 C87.022348,26.0189295 88.3397979,27.2838216 89.9515012,27.2838216 C91.6228973,27.2838216 92.977832,25.9234986 92.977832,24.2454552 C92.9782958,23.4616846 92.6615496,22.711362 92.1002598,22.166624 C91.53897,21.621886 90.7813149,21.3294901 90.0011132,21.3565168 C89.2041929,21.3012042 88.4202335,21.5809755 87.8368764,22.1288671 Z M185.156875,19.2645268 C183.911953,19.2648872 182.710849,19.7259594 181.783261,20.5595682 C180.876592,21.3019461 180.304644,22.3786139 180.195678,23.5481253 L189.522731,23.5481253 C189.524104,22.4154651 189.056934,21.3330919 188.232817,20.5595682 C187.418632,19.736182 186.312499,19.2704747 185.156875,19.2645268 Z M161.343128,19.463764 L161.343128,19.5633825 L161.296,19.517 L161.343128,19.463764 Z M175.929048,19.463764 L175.929048,19.5633825 L175.882,19.517 L175.929048,19.463764 Z M127.210092,13.7855056 L127.90466,14.7816913 L128.599227,13.7855056 L128.996123,13.7855056 L128.996123,15.9771141 L128.599227,15.9771141 L128.599227,14.383217 L127.90466,15.4790212 L127.210092,14.383217 L127.210092,15.9771141 L126.813196,15.9771141 L126.813196,13.7855056 L127.210092,13.7855056 Z M126.317076,13.7855056 L126.317076,14.1839799 L125.622509,14.1839799 L125.622509,15.9771141 L125.225613,15.9771141 L125.225613,14.1839799 L124.531045,14.1839799 L124.531045,13.7855056 L126.317076,13.7855056 Z M103.396346,10 C104.985542,10 106.27384,11.2934218 106.27384,12.8889385 C106.27384,14.4844551 104.985542,15.777877 103.396346,15.777877 C101.807149,15.777877 100.518851,14.4844551 100.518851,12.8889385 C100.518851,11.2934218 101.807149,10 103.396346,10 Z M76.7051048,10 C78.294301,10 79.5825992,11.2934218 79.5825992,12.8889385 C79.5825992,14.4844551 78.294301,15.777877 76.7051048,15.777877 C75.1159085,15.777877 73.8276104,14.4844551 73.8276104,12.8889385 C73.8276104,11.2934218 75.1159085,10 76.7051048,10 Z"/>
    <path fill="#F26E38" d="M10.3709528,22.0065789 C10.5989462,18.4195628 13.7410698,15.6919298 17.3921865,15.9115454 C21.0433032,16.131161 23.8233143,19.2150119 23.6042616,22.8025659 C23.3852088,26.3901198 20.2498927,29.1253043 16.5982396,28.9144737 C14.8389227,28.8128983 13.1931862,28.0271973 12.0246848,26.7309852 C10.8561835,25.4347732 10.2611087,23.7347546 10.3709528,22.0065789 M15.8951588,39.0789474 L18.9083621,39.0789474 C18.9915694,38.9971947 19.1264751,38.9971947 19.2096824,39.0789474 C19.2928897,39.1607001 19.2928897,39.2932473 19.2096824,39.375 C18.9428687,41.1213696 18.2540377,42.7795024 17.2008802,44.2105263 L17.2008802,44.5065789 C17.1959909,44.7447833 17.3650379,44.9523979 17.6026407,45 L17.903961,45 C24.0392521,41.5412752 28.9737309,36.3492162 32.0660164,30.0986842 C34.7298486,25.0959752 34.6366953,19.108755 31.8184729,14.1883834 C29.0002506,9.26801176 23.839661,6.0826529 18.1048412,5.72368421 L15.0916379,5.72368421 C15.0251948,5.76237013 14.9420615,5.76020342 14.8777993,5.71811091 C14.8135371,5.6760184 14.7795272,5.6014549 14.7903176,5.52631579 C15.0571313,3.77994618 15.7459623,2.12181341 16.7991198,0.690789474 L16.7991198,0.493421053 C16.8040091,0.255216728 16.6349621,0.047602118 16.3973593,0 L16.096039,0 C9.99040412,3.40635382 5.05906792,8.52638096 1.93398364,14.7039474 C-0.729848576,19.7066564 -0.636695275,25.6938766 2.18152708,30.6142482 C4.99974943,35.5346198 10.160339,38.7199787 15.8951588,39.0789474"/>
  </g>
</svg>
